<svg height="512" viewBox="0 0 128 128" width="512" xmlns="http://www.w3.org/2000/svg"><path d="m107.676 85.1a32.579 32.579 0 0 0 -12.429-7.816 5.817 5.817 0 0 0 -.92-1.243 5.941 5.941 0 0 0 -6.638-1.2c-2.079-3.646-6.881-14.374-2.52-29.968 5.992-21.425-4.72-29.829-5.178-30.176a1.752 1.752 0 0 0 -2.517.431l-39.482 59.793-3.292-2.172a4.5 4.5 0 0 0 -6.228 1.274l-4.308 6.524-11.428 17.3a10.186 10.186 0 0 0 17 11.225l11.427-17.3 4.309-6.526a4.5 4.5 0 0 0 -1.272-6.225l-3.288-2.171 38.3-58c2.375 2.873 6.669 10.484 2.586 25.082-4.989 17.84.992 29.708 3.215 33.286a5.913 5.913 0 0 0 .631 6.921 32.34 32.34 0 0 0 17.185 29.332 1.749 1.749 0 0 0 2.462-1.043 27.256 27.256 0 0 0 1.2-8.088c0-.153-.012-.313-.014-.467a28.583 28.583 0 0 0 8.566 2.169c.053 0 .105.008.158.008a1.75 1.75 0 0 0 1.743-1.91 31.28 31.28 0 0 0 -9.268-19.04zm-80.86 22.052a6.686 6.686 0 0 1 -11.159-7.367l10.465-15.846 11.158 7.369zm15.738-23.832-3.345 5.067-11.159-7.369 3.35-5.066a.994.994 0 0 1 1.378-.282l9.5 6.272a1 1 0 0 1 .276 1.378zm50.981 1.789 5.408 5.408a1.742 1.742 0 0 0 .555.372 29.534 29.534 0 0 1 2.568 6.486 29.9 29.9 0 0 1 -9.585-11.675 5.9 5.9 0 0 0 1.054-.591zm-1.683-6.592a2.385 2.385 0 0 1 .547.853 2.447 2.447 0 0 1 .081 1.559 2.512 2.512 0 0 1 -.628 1.044 2.441 2.441 0 0 1 -3.361.091l-.094-.091a2.443 2.443 0 0 1 3.455-3.456zm10.648 30.754a28.984 28.984 0 0 1 -13.325-22.4 33.479 33.479 0 0 0 13.708 15.192c.067.771.112 1.536.112 2.274a24.365 24.365 0 0 1 -.495 4.934zm3.645-9.43a33.062 33.062 0 0 0 -9-18.01 29.806 29.806 0 0 1 8.066 5.745 28.291 28.291 0 0 1 7.951 14.677 26.1 26.1 0 0 1 -7.022-2.412z"/></svg>