<svg height="512" viewBox="0 0 512 512" width="512" xmlns="http://www.w3.org/2000/svg"><g id="Flat"><path d="m128 200h-16a56 56 0 0 1 -56-56 56 56 0 0 1 56-56h64a16 16 0 0 0 16-16 16 16 0 0 0 -16-16h-64a88 88 0 0 0 -88 88 88 88 0 0 0 88 88h16z" fill="#f79d16"/><path d="m272 344-16 40v72h40v-64l40-48z" fill="#f98500"/><path d="m208 344h-88v48l40 64h48l-40-64z" fill="#f98500"/><path d="m384 302v50l56 104h-48l-64-96-6-16h-160.91a84.652 84.652 0 0 1 -46.63 33.58l-50.46 14.42v64h-40v-88l48-32v-80a56 56 0 0 1 56-56h216l1.1-.22 78.9-15.78 4.04-8.07a54.534 54.534 0 0 1 10.23-14.2l9.73-9.73a54.641 54.641 0 0 1 16 38.63v1.37l16 16v24l8 24-24 24-40-8z" fill="#ffb531"/><path d="m384 302v50l56 104h-48l-64-96-6-16h-160.91a84.652 84.652 0 0 1 -46.63 33.58l-50.46 14.42v64h-40v-88l48-32v-34.24c89.56-16.25 190.6-46.38 273.1-101.98l78.9-15.78 4.04-8.07a54.534 54.534 0 0 1 10.23-14.2l9.73-9.73a54.641 54.641 0 0 1 16 38.63v1.37l16 16v24l8 24-24 24-40-8z" fill="#ffa912"/><path d="m440 216h16v16h-16z" fill="#348fd9"/></g></svg>