<svg id="Layer_1" enable-background="new 0 0 511.743 511.743" height="512" viewBox="0 0 511.743 511.743" width="512" xmlns="http://www.w3.org/2000/svg"><g><path d="m158.547 196.88c-24.813 0-45 20.187-45 45 2.472 59.699 87.537 59.681 90 0 0-24.813-20.187-45-45-45zm0 70c-13.785 0-25-11.215-25-25 1.373-33.166 48.632-33.156 50 0 0 13.785-11.214 25-25 25z"/><path d="m462.002 391.879h-37.187c75.177-91.973 22.849-234.038-92.628-256.747v-15.254c27.57 0 50-22.43 50-50 .179-40.91-47.5-64.662-80-39.995-32.512-24.669-80.178-.911-80 39.995 0 27.57 22.429 49.999 50 49.999v14.434c-26.538 4.68-51.568 16.011-72.7 33.092-25.191-14.668-61.196-13.719-85.517 2.128-73.907-19.125-130.124 66.193-83.532 126.514-19.436 26.467-30.438 58.759-30.438 92.501 0 34.922 28.411 63.333 63.333 63.333h236.667c40.486 0 77.508-15.116 105.72-40h56.282c39.808 1.652 39.778 58.363 0 60h-162.002c-13.268.528-13.258 19.477 0 20h162.002c66.347-2.754 66.296-97.27 0-100zm-173.689-291.166c-2.443-1.895-5.627-2.551-8.619-1.781-18.593 5.035-37.775-9.746-37.507-29.054-.005-27.473 34.37-40.444 52.502-19.837 3.765 4.468 11.23 4.468 14.995 0 18.138-20.606 52.506-7.636 52.502 19.838.268 19.305-18.915 34.093-37.507 29.054-2.993-.769-6.176-.113-8.619 1.781-2.444 1.894-3.874 4.812-3.874 7.903v23.722c-6.59-.501-13.364-.595-20-.269v-23.454c.001-3.091-1.429-6.009-3.873-7.903zm-254.766 146.167c-.008-33.167 27.074-60.141 60.241-59.999-15.465 17.775-23.312 43.91-19.18 68.366-11.451 7.085-21.811 15.518-30.916 25.021-6.586-9.829-10.145-21.424-10.145-33.388zm29.786 184.999c-23.894 0-43.333-19.439-43.333-43.333 0-45.423 22.883-87.844 60.402-113.231 1.326 3.102 2.838 6.13 4.533 9.064 2.761 4.783 8.876 6.421 13.66 3.66 4.783-2.761 6.422-8.877 3.66-13.66-25.11-42.596 6.812-97.921 56.293-97.5 57.477-.132 86.752 70.509 45.961 110.962-9.014 9.742 4.412 23.153 14.143 14.142 34.231-32.907 32.366-91.508-2.294-122.364 91.129-68.688 224.151-2.016 223.642 112.261 0 77.195-62.804 139.999-140 139.999z"/><path d="m67.437 335.763h-.007c-5.523 0-9.997 4.477-9.997 10 .528 13.263 19.479 13.263 20.004 0 0-5.523-4.478-10-10-10z"/><path d="m332.189 79.878c13.268-.528 13.258-19.477 0-20h-.007c-13.268.53-13.251 19.478.007 20z"/><path d="m272.19 59.878h-.007c-5.523 0-9.997 4.477-9.997 10 .528 13.263 19.479 13.263 20.004 0 0-5.523-4.477-10-10-10z"/></g></svg>