<?xml version="1.0" encoding="utf-8"?>
<!-- Generator: Adobe Illustrator 23.0.6, SVG Export Plug-In . SVG Version: 6.00 Build 0)  -->
<svg version="1.1" id="Capa_1" xmlns="http://www.w3.org/2000/svg" xmlns:xlink="http://www.w3.org/1999/xlink" x="0px" y="0px"
	 viewBox="0 0 512 512" style="enable-background:new 0 0 512 512;" xml:space="preserve">
<style type="text/css">
	.st0{fill:#E7E8EC;}
</style>
<g id="XMLID_195_">
	<g id="XMLID_441_">
		<path id="XMLID_273_" class="st0" d="M202.6,509.5c-23.6,0-47.1-8.8-65.1-26.3c-8.5-8.3-15.3-18-20.1-28.7
			C105,426.6,82.8,404.5,55,392c-10.8-4.8-20.4-11.6-28.7-20.1c-35.1-36-35-94.6,0.2-130.5c14.4-14.6,32.6-23.9,52.8-26.9
			c11.5-1.7,21.7-6.8,29.6-14.8l0.6-0.6c21.9-21.9,53.1-31.4,87.8-27c33.3,4.3,66.2,21.2,92.5,47.5s43.2,59.2,47.5,92.5
			c4.5,34.8-5.1,66-27,87.8l-0.6,0.5c-8,7.9-13.1,18.1-14.8,29.6c-3,20.2-12.3,38.5-26.9,52.9C250,500.6,226.3,509.5,202.6,509.5
			L202.6,509.5z M181.1,201c-19.5,0-37.3,6.3-50.4,19.3l-0.4,0.4c-12.5,12.7-28.6,20.8-46.6,23.5c-13.7,2-26.1,8.3-35.8,18.3
			c-23.9,24.4-24,64.1-0.2,88.5c5.6,5.8,12.2,10.4,19.5,13.6c34.6,15.5,62.1,43,77.6,77.6c3.3,7.3,7.8,13.8,13.6,19.5
			c24.5,23.8,64.2,23.8,88.5-0.2c9.9-9.7,16.2-22.1,18.3-35.8c2.7-18,10.8-34.1,23.5-46.6l0.4-0.4c15.1-15.1,21.7-37.4,18.4-62.8
			c-3.5-26.8-17.3-53.4-38.9-75.1C242.5,214.8,210,201,181.1,201L181.1,201z"/>
	</g>
	<g id="XMLID_481_">
		<path id="XMLID_270_" class="st0" d="M302.6,154.6c-17.3,0-32.8-6.1-44.3-17.6c-13.4-13.4-19.5-32.3-17.1-53.1
			c2.3-19.5,11.8-38.6,27-53.8C283.3,14.9,302.4,5.3,322,3c20.8-2.4,39.7,3.7,53.1,17.1c13.4,13.4,19.5,32.3,17.1,53.1
			c-2.3,19.5-11.8,38.6-27,53.8c-15.2,15.2-34.3,24.7-53.8,27C308.4,154.4,305.5,154.6,302.6,154.6L302.6,154.6z M330.7,32.6
			c-1.7,0-3.5,0.1-5.2,0.3c-12.8,1.5-25.6,8-36,18.4c-10.4,10.4-16.9,23.2-18.4,36c-1.3,11.5,1.7,21.7,8.5,28.5
			c6.8,6.8,16.9,9.8,28.5,8.5c12.8-1.5,25.6-8,36-18.4c10.4-10.4,16.9-23.2,18.4-36c1.3-11.5-1.7-21.7-8.5-28.5
			C348.1,35.6,340,32.6,330.7,32.6z"/>
	</g>
	<g id="XMLID_483_">
		<path id="XMLID_267_" class="st0" d="M101.1,162.3c-17.3,0-32.8-6.1-44.3-17.6c-13.4-13.4-19.5-32.3-17.1-53.1
			c2.3-19.5,11.8-38.6,27-53.8c15.2-15.2,34.3-24.7,53.8-27c20.8-2.4,39.7,3.7,53.1,17.1c13.4,13.4,19.5,32.3,17.1,53.1
			c-2.3,19.5-11.8,38.6-27,53.8c-15.2,15.2-34.3,24.7-53.8,27C106.9,162.1,104,162.3,101.1,162.3z M129.2,40.2
			c-1.7,0-3.5,0.1-5.2,0.3c-12.8,1.5-25.6,8-36,18.4C77.5,69.3,71,82.1,69.5,94.9c-1.3,11.5,1.7,21.7,8.5,28.5
			c6.8,6.8,16.9,9.8,28.5,8.5c12.8-1.5,25.6-8,36-18.4s16.9-23.2,18.4-36c1.3-11.5-1.7-21.7-8.5-28.5
			C146.6,43.2,138.5,40.2,129.2,40.2z"/>
	</g>
	<g id="XMLID_84_">
		<path id="XMLID_242_" class="st0" d="M421.9,273.9c-17.3,0-32.8-6.1-44.3-17.6c-13.4-13.4-19.5-32.3-17.1-53.1
			c2.3-19.5,11.8-38.6,27-53.8c15.2-15.2,34.3-24.7,53.8-27c20.8-2.4,39.7,3.7,53.1,17.1s19.5,32.3,17.1,53.1
			c-2.3,19.5-11.8,38.6-27,53.8c-15.2,15.2-34.3,24.7-53.8,27C427.7,273.7,424.7,273.9,421.9,273.9z M449.9,151.8
			c-1.7,0-3.5,0.1-5.2,0.3c-12.8,1.5-25.6,8-36,18.4c-10.4,10.4-16.9,23.2-18.4,36c-1.3,11.5,1.7,21.7,8.5,28.5
			c6.8,6.8,16.9,9.8,28.5,8.5c12.8-1.5,25.6-8,36-18.4c10.4-10.4,16.9-23.2,18.4-36c1.3-11.5-1.7-21.7-8.5-28.5
			C467.4,154.9,459.3,151.8,449.9,151.8L449.9,151.8z"/>
	</g>
	<g id="XMLID_3_">
		<path id="XMLID_239_" class="st0" d="M411.8,472.9c-17.3,0-32.8-6.1-44.3-17.6c-13.4-13.4-19.5-32.3-17.1-53.1
			c2.3-19.5,11.8-38.6,27-53.8c15.2-15.2,34.3-24.7,53.8-27c20.8-2.4,39.7,3.7,53.1,17.1c13.4,13.4,19.5,32.3,17.1,53.1
			c-2.3,19.5-11.8,38.6-27,53.8c-15.2,15.2-34.3,24.7-53.8,27C417.6,472.7,414.7,472.9,411.8,472.9z M439.8,350.9
			c-1.7,0-3.5,0.1-5.2,0.3c-12.8,1.5-25.6,8-36,18.4c-10.4,10.4-16.9,23.2-18.4,36c-1.3,11.5,1.7,21.7,8.5,28.5
			c6.8,6.8,16.9,9.8,28.5,8.5c12.8-1.5,25.6-8,36-18.4c10.4-10.4,16.9-23.2,18.4-36c1.3-11.5-1.7-21.7-8.5-28.5
			C457.3,353.9,449.2,350.9,439.8,350.9z"/>
	</g>
</g>
</svg>
